<svg width="77" height="64" viewBox="0 0 77 64" fill="none" xmlns="http://www.w3.org/2000/svg">
<path d="M36.1342 61.0134C33.1476 60.7289 29.7342 60.0178 27.8853 59.5911C20.3476 58.3111 13.0942 52.9067 11.9565 45.0845C10.6765 35.9823 16.5076 26.0267 22.6231 19.7689C24.3298 18.0622 26.3209 16.3556 28.4542 15.0756C29.8764 14.2222 31.7253 13.7956 32.4365 12.2311C33.5742 9.52892 30.5876 3.98225 32.7209 1.42225C36.4187 -2.84442 38.1253 10.5245 39.832 10.3822C42.6764 10.24 45.8053 1.42225 49.6453 2.70225C51.9209 3.55558 50.072 7.68003 49.5031 9.24447C50.9253 8.53336 56.1876 5.26225 57.3253 7.5378C58.0364 8.96003 53.912 12.2311 55.0498 13.0845C55.0498 12.9422 55.0498 12.8 55.0498 12.6578C55.3342 13.7956 58.7476 14.9334 59.6009 15.36C61.4498 16.64 63.2987 18.0622 64.8631 19.7689C68.1342 23.04 70.6942 26.7378 72.6853 30.8622C75.9565 37.6889 77.3787 45.7956 72.4009 52.3378C68.5609 57.4578 60.7387 60.3023 54.9076 61.0134C49.2187 61.5823 40.4009 61.44 36.1342 61.0134Z" fill="white"/>
<path fill-rule="evenodd" clip-rule="evenodd" d="M34.2853 60.7289C31.8676 60.4445 29.7342 60.0178 27.8853 59.5911C20.3476 58.3111 13.0942 52.9067 11.9565 45.0845C10.6765 35.9823 16.5076 26.0267 22.6231 19.7689C24.3298 18.0622 26.3209 16.3556 28.4542 15.0756C29.8764 14.2222 31.7253 13.7956 32.4365 12.2311C33.5742 9.52892 30.5876 3.98225 32.7209 1.42225C36.4187 -2.84442 38.1253 10.5245 39.832 10.3822C40.8276 10.24 41.8231 9.24447 42.8187 7.82225C43.1031 9.52891 43.3876 11.0934 42.9609 12.2311C42.2498 13.7956 40.4009 14.08 38.9787 15.0756C36.8453 16.3556 34.8542 18.0622 33.1476 19.7689C26.8898 26.0267 21.2009 35.9823 22.4809 45.0845C23.6187 52.9067 30.872 58.3111 38.4098 59.5911C40.2587 60.0178 42.5342 60.4445 44.8098 60.7289" fill="#F3F3F3"/>
<path fill-rule="evenodd" clip-rule="evenodd" d="M54.0538 7.11119C52.7738 8.81785 51.6361 10.3823 50.4983 10.3823C49.5027 10.3823 48.5072 6.11563 47.085 3.12896C47.9383 2.56008 48.7916 2.27563 49.645 2.56008C51.9205 3.41341 50.0716 7.53785 49.5027 9.1023C50.3561 8.81785 52.205 7.68008 54.0538 7.11119Z" fill="#F3F3F3"/>
<path d="M36.1342 61.0134C33.1476 60.7289 29.7342 60.0178 27.8853 59.5911C20.3476 58.3111 13.0942 52.9067 11.9565 45.0845C10.6765 35.9822 16.5076 26.0267 22.6231 19.7689C24.3298 18.0622 26.3209 16.3556 28.4542 15.0756C29.8765 14.2222 31.7253 13.7956 32.4365 12.2311C33.5742 9.52891 30.5876 3.98225 32.7209 1.42225C36.4187 -2.84442 38.1253 10.5245 39.832 10.3822C42.6764 10.24 45.8053 1.42225 49.6453 2.70225C51.9209 3.55558 50.072 7.68003 49.5031 9.24447C50.9253 8.53336 56.1876 5.26225 57.3253 7.5378C58.0364 8.96003 53.912 12.2311 55.0498 13.0845C55.0498 12.9422 58.7476 14.7911 59.6009 15.36C61.4498 16.64 63.2987 18.0622 64.8631 19.7689C68.1342 23.04 70.6942 26.7378 72.6853 30.8622C75.9565 37.6889 77.3787 45.7956 72.4009 52.3378C68.5609 57.4578 60.7387 60.3023 54.9076 61.0134C49.2187 61.5823 40.4009 61.44 36.1342 61.0134Z" stroke="#AAAAAA" stroke-linecap="round" stroke-linejoin="round"/>
<path fill-rule="evenodd" clip-rule="evenodd" d="M51.2097 33.7067C51.7786 37.4045 56.7563 36.9778 56.0452 33.28C55.7608 31.8578 54.623 30.2933 53.0585 30.1511C51.3519 30.2933 51.0674 32.2845 51.2097 33.7067Z" fill="#AAAAAA"/>
<path d="M42.1074 34.8445C42.1074 34.8445 42.6763 35.5556 43.8141 35.1289" stroke="#AAAAAA" stroke-linecap="round" stroke-linejoin="round"/>
<path d="M39.6895 37.5468C39.6895 37.5468 41.2539 38.6845 42.9606 37.4045C42.9606 37.4045 45.3783 38.969 46.2317 37.689" stroke="#AAAAAA" stroke-linecap="round" stroke-linejoin="round"/>
<path d="M40.6854 37.8311C40.5432 39.5377 40.401 42.2399 42.2498 42.9511C45.0943 44.0888 45.521 39.9644 45.2365 37.9733" stroke="#AAAAAA" stroke-linecap="round" stroke-linejoin="round"/>
<path fill-rule="evenodd" clip-rule="evenodd" d="M56.3302 40.8178C56.4724 37.5467 59.3169 35.1289 62.588 35.2711C65.8591 35.4133 68.2769 38.2578 68.1346 41.5289C67.9924 44.8 65.148 47.2178 61.8769 47.0755C58.6058 46.9333 56.0458 44.0889 56.3302 40.8178Z" fill="#FFE5F4"/>
<path fill-rule="evenodd" clip-rule="evenodd" d="M34.9967 33.7067C34.4278 37.4045 29.45 36.9778 30.1612 33.28C30.4456 31.8578 31.5834 30.2933 33.1478 30.1511C34.8545 30.2933 35.1389 32.2845 34.9967 33.7067Z" fill="#AAAAAA"/>
<path fill-rule="evenodd" clip-rule="evenodd" d="M23.619 35.2711C26.8901 35.1289 29.7346 37.5467 29.8768 40.8178C30.019 44.0889 27.6013 46.9333 24.3301 47.0755C21.059 47.2178 18.2146 44.8 18.0724 41.5289C17.9301 38.2578 20.3479 35.4133 23.619 35.2711Z" fill="#FFE5F4"/>
<path d="M35.708 43.0933L51.2102 56.4622L48.9347 59.4488L32.5791 47.0755L35.708 43.0933Z" fill="white" stroke="#AAAAAA" stroke-linecap="round" stroke-linejoin="round"/>
<path d="M69.8414 57.3157C68.1347 51.2001 58.748 58.7379 50.4991 53.3334C47.9391 51.6268 42.108 58.7379 51.2102 62.1512C57.6102 64.569 71.548 62.8623 69.8414 57.3157Z" fill="white" stroke="#AAAAAA" stroke-linecap="round" stroke-linejoin="round"/>
<path d="M67.1392 6.68458C67.8503 7.68014 67.7081 8.81792 66.997 9.3868C66.1436 9.95569 65.0058 9.81347 64.2947 8.81792C63.5836 7.82236 63.4414 4.83569 63.4414 4.83569C63.4414 4.83569 66.2858 5.68903 67.1392 6.68458Z" fill="white" stroke="#F15456" stroke-linecap="round" stroke-linejoin="round"/>
<path d="M17.7876 15.5022C17.7876 16.7822 16.9343 17.6356 15.9387 17.6356C14.9432 17.6356 14.0898 16.7822 14.0898 15.36C14.0898 14.08 15.9387 11.52 15.9387 11.52C15.9387 11.52 17.9298 14.2222 17.7876 15.5022Z" fill="white" stroke="#F15456" stroke-linecap="round" stroke-linejoin="round"/>
<path d="M19.7785 20.9067L31.1562 22.6134L25.4673 34.9867L31.7251 43.8045L22.7651 56.0356H19.0673L22.1962 43.2356L12.8096 37.1201L19.7785 20.9067Z" fill="white"/>
<path d="M21.7698 45.0844L22.1965 43.0933L12.8098 37.12L19.7787 20.7644L6.9787 21.6177C3.56537 21.9022 0.863145 25.0311 1.00537 28.4444L2.56981 50.0622C2.71203 51.7689 3.42315 53.3333 4.84537 54.4711C6.12537 55.6088 7.68981 56.1777 9.39648 56.0355L19.4943 55.3244L21.0587 48.3555L11.672 38.8266L3.42315 50.3466L11.672 38.8266L21.0587 48.4977L21.7698 45.0844Z" fill="white" stroke="#F15456" stroke-linecap="round" stroke-linejoin="round"/>
<path opacity="0.2" d="M6.9787 21.7599C3.56537 22.0444 0.863145 25.1733 1.00537 28.5866L2.56981 50.2044C2.71203 51.9111 3.42314 53.4755 4.84537 54.6133C6.12537 55.7511 7.68981 56.3199 9.5387 56.1777L15.0854 55.7511C14.3743 55.4666 13.6631 55.0399 13.0943 54.6133C11.8143 53.4755 10.9609 52.0533 10.8187 50.2044L10.1076 41.1022L9.25426 28.7288C8.96981 25.3155 11.672 22.1866 15.2276 21.9022L19.6365 21.6177L19.9209 21.0488L6.9787 21.7599Z" fill="#F15456"/>
<path d="M8.9695 29.1556C10.6762 29.0133 12.2406 30.2933 12.2406 32C12.3828 33.7067 11.1028 35.2711 9.39616 35.2711C7.6895 35.4133 6.12505 34.1333 6.12505 32.4267C5.98283 30.8622 7.26283 29.2978 8.9695 29.1556Z" fill="#F15456"/>
<path d="M46.0901 26.7377C45.0945 25.3155 43.6723 24.4622 41.9656 24.1777L30.5878 22.3289L25.4678 34.8444L30.7301 42.24L36.5612 37.12L43.3878 49.3511L36.5612 37.12L30.7301 42.24L31.7256 43.6622L25.8945 51.7689L28.4545 55.8933L25.8945 51.7689L22.7656 56.1777L36.7034 58.3111C40.1167 58.88 43.5301 56.32 43.9567 52.9066L47.2278 31.5733C47.5123 29.8666 47.0856 28.16 46.0901 26.7377Z" fill="white" stroke="#F15456" stroke-linecap="round" stroke-linejoin="round"/>
</svg>
