<svg width="24" height="24" viewBox="0 0 24 24" fill="none" xmlns="http://www.w3.org/2000/svg">
<path d="M23.4333 9.26667L21.5867 8.86667C21.4267 8.37333 21.2267 7.89333 20.9933 7.43333L22.0133 5.84667C22.1933 5.56 22.1533 5.19333 21.92 4.95333L19.0467 2.08C18.8067 1.84 18.4333 1.8 18.1533 1.98667L16.5667 3.00667C16.1067 2.77333 15.6267 2.57333 15.1333 2.41333L14.7333 0.566667C14.66 0.24 14.3667 0 14.0333 0H9.96667C9.62667 0 9.34 0.233333 9.26667 0.566667L8.86667 2.41333C8.37333 2.57333 7.89333 2.77333 7.43333 3.00667L5.84667 1.98667C5.56 1.80667 5.19333 1.84667 4.95333 2.08L2.08 4.95333C1.84 5.19333 1.8 5.56667 1.98667 5.84667L3.00667 7.43333C2.77333 7.89333 2.57333 8.37333 2.41333 8.86667L0.566667 9.26667C0.24 9.34 0 9.63333 0 9.96667V14.0333C0 14.3733 0.233333 14.66 0.566667 14.7333L2.41333 15.1333C2.57333 15.6267 2.77333 16.1067 3.00667 16.5667L1.98667 18.1533C1.80667 18.44 1.84667 18.8067 2.08 19.0467L4.95333 21.92C5.19333 22.16 5.56667 22.2 5.84667 22.0133L7.43333 20.9933C7.89333 21.2267 8.37333 21.4267 8.86667 21.5867L9.26667 23.4333C9.34 23.76 9.63333 24 9.96667 24H14.0333C14.3733 24 14.66 23.7667 14.7333 23.4333L15.1333 21.5867C15.6267 21.4267 16.1067 21.2267 16.5667 20.9933L18.1533 22.0133C18.44 22.1933 18.8067 22.1533 19.0467 21.92L21.92 19.0467C22.16 18.8067 22.2 18.4333 22.0133 18.1533L20.9933 16.5667C21.2267 16.1067 21.4267 15.6267 21.5867 15.1333L23.4333 14.7333C23.76 14.66 24 14.3667 24 14.0333V9.96667C24 9.62667 23.7667 9.34 23.4333 9.26667Z" fill="url(#paint0_linear_14982_3236)"/>
<path d="M6 15.7L9.2 8H11.1L14.3 15.7H12.4L11.7 13.9H8.6L7.9 15.7H6ZM10.1 9.9L9 12.6H11.2L10.1 9.9Z" fill="white"/>
<path d="M15.1001 15.7V8H16.7001V15.7H15.1001Z" fill="white"/>
<defs>
<linearGradient id="paint0_linear_14982_3236" x1="3.33333" y1="4.23333" x2="21.2267" y2="20.2667" gradientUnits="userSpaceOnUse">
<stop stop-color="#52B4FE"/>
<stop offset="1" stop-color="#574FFF"/>
</linearGradient>
</defs>
</svg>
