<svg width="64" height="64" viewBox="0 0 64 64" fill="none" xmlns="http://www.w3.org/2000/svg">
<g clip-path="url(#clip0_22773_3798)">
<path d="M32 64C49.6731 64 64 49.6731 64 32C64 14.3269 49.6731 0 32 0C14.3269 0 0 14.3269 0 32C0 49.6731 14.3269 64 32 64Z" fill="url(#paint0_linear_22773_3798)"/>
<path d="M40.189 14H23.811C20.202 14 17.27 16.921 17.27 20.53V43.47C17.27 47.079 20.201 50 23.811 50H40.189C43.798 50 46.73 47.079 46.73 43.47V20.53C46.73 16.921 43.798 14 40.189 14ZM40.084 44.221H23.915C21.318 44.221 19.596 41.53 20.671 39.151C22.173 35.792 25.125 33.236 28.724 32.245C26.7 31.108 25.334 28.938 25.334 26.445C25.334 22.763 28.317 19.779 32 19.779C35.683 19.779 38.666 22.762 38.666 26.445C38.666 28.938 37.299 31.108 35.276 32.245C38.885 33.226 41.837 35.792 43.329 39.151C44.403 41.529 42.692 44.221 40.084 44.221Z" fill="white"/>
</g>
<defs>
<linearGradient id="paint0_linear_22773_3798" x1="32" y1="0.7016" x2="32" y2="64.7739" gradientUnits="userSpaceOnUse">
<stop stop-color="#52B4FE"/>
<stop offset="1" stop-color="#574FFF"/>
</linearGradient>
<clipPath id="clip0_22773_3798">
<rect width="64" height="64" fill="white"/>
</clipPath>
</defs>
</svg>
