<svg width="64" height="64" viewBox="0 0 64 64" fill="none" xmlns="http://www.w3.org/2000/svg">
<g id="Frame" clip-path="url(#clip0_22773_3801)">
<path id="Vector" d="M32 64C49.6731 64 64 49.6731 64 32C64 14.3269 49.6731 0 32 0C14.3269 0 0 14.3269 0 32C0 49.6731 14.3269 64 32 64Z" fill="url(#paint0_linear_22773_3801)"/>
<g id="Group">
<path id="Vector_2" d="M39.539 45.7236H24.461C22.036 45.7236 20.437 43.2166 21.436 40.9916C22.835 37.8666 25.587 35.4776 28.948 34.5606C27.059 33.4976 25.787 31.4726 25.787 29.1466C25.787 25.7136 28.567 22.9336 32 22.9336C35.434 22.9336 38.213 25.7136 38.213 29.1466C38.213 31.4716 36.941 33.4976 35.052 34.5606C38.413 35.4686 41.165 37.8666 42.564 40.9916C43.563 43.2166 41.965 45.7236 39.539 45.7236Z" fill="white"/>
<path id="Vector_3" d="M43.343 50H20.657C16.98 50 14 47.02 14 43.343V20.657C14 16.98 16.98 14 20.657 14H43.344C47.02 14 50 16.98 50 20.657V43.344C50 47.02 47.02 50 43.343 50Z" stroke="white" stroke-width="2" stroke-miterlimit="10"/>
</g>
<g id="Group_2">
<path id="Vector_4" d="M40.726 17.3827V22.0147C40.726 22.4267 40.392 22.7607 39.98 22.7607C39.568 22.7607 39.234 22.4267 39.234 22.0147V20.9857C39.234 20.5737 38.9 20.2397 38.488 20.2397H37.66C37.248 20.2397 36.914 20.5737 36.914 20.9857V22.0147C36.914 22.4267 36.58 22.7607 36.168 22.7607C35.756 22.7607 35.422 22.4267 35.422 22.0147V17.3827C35.422 16.9707 35.756 16.6367 36.168 16.6367C36.58 16.6367 36.914 16.9707 36.914 17.3827V18.2897C36.914 18.7017 37.248 19.0357 37.66 19.0357H38.489C38.901 19.0357 39.235 18.7017 39.235 18.2897V17.3827C39.235 16.9707 39.569 16.6367 39.981 16.6367C40.392 16.6367 40.726 16.9707 40.726 17.3827Z" fill="white"/>
<path id="Vector_5" d="M45.786 17.0207C46.268 17.2767 46.642 17.6357 46.907 18.0977C47.171 18.5597 47.304 19.0937 47.304 19.6987C47.304 20.2977 47.171 20.8297 46.907 21.2957C46.642 21.7607 46.267 22.1217 45.782 22.3777C45.296 22.6337 44.733 22.7617 44.094 22.7617H42.845C42.268 22.7617 41.799 22.2937 41.799 21.7157V17.6827C41.799 17.1057 42.267 16.6367 42.845 16.6367H44.094C44.739 16.6367 45.303 16.7647 45.786 17.0207ZM45.314 21.0067C45.629 20.6987 45.786 20.2627 45.786 19.6977C45.786 19.1337 45.629 18.6947 45.314 18.3807C45 18.0667 44.562 17.9097 43.997 17.9097H43.291V21.4687H43.997C44.562 21.4697 45.001 21.3157 45.314 21.0067Z" fill="white"/>
</g>
</g>
<defs>
<linearGradient id="paint0_linear_22773_3801" x1="32" y1="0.7016" x2="32" y2="64.7739" gradientUnits="userSpaceOnUse">
<stop stop-color="#52B4FE"/>
<stop offset="1" stop-color="#574FFF"/>
</linearGradient>
<clipPath id="clip0_22773_3801">
<rect width="64" height="64" fill="white"/>
</clipPath>
</defs>
</svg>
