<svg width="64" height="64" viewBox="0 0 64 64" fill="none" xmlns="http://www.w3.org/2000/svg">
<g clip-path="url(#clip0_22773_3736)">
<path d="M32 64C49.6731 64 64 49.6731 64 32C64 14.3269 49.6731 0 32 0C14.3269 0 0 14.3269 0 32C0 49.6731 14.3269 64 32 64Z" fill="url(#paint0_linear_22773_3736)"/>
<path fill-rule="evenodd" clip-rule="evenodd" d="M38.055 28.2135C38.055 29.3155 37.155 30.2045 36.052 30.2045C34.949 30.2045 34.061 29.3155 34.061 28.2135C34.061 27.7855 34.41 27.4375 34.826 27.4375C35.254 27.4375 35.602 27.7865 35.602 28.2135C35.602 28.4495 35.805 28.6525 36.052 28.6525C36.299 28.6525 36.502 28.4505 36.502 28.2135C36.502 27.7855 36.851 27.4375 37.278 27.4375C37.705 27.4375 38.055 27.7865 38.055 28.2135Z" fill="white"/>
<path fill-rule="evenodd" clip-rule="evenodd" d="M43.252 14.0039H20.752C17.017 14.0039 14.002 17.0189 14.002 20.7539V43.2539C14.002 46.9779 17.017 50.0039 20.752 50.0039H43.252C46.976 50.0039 50.002 46.9779 50.002 43.2539V20.7539C50.002 17.0189 46.976 14.0039 43.252 14.0039ZM44.265 29.2249L39.967 31.1939V43.1299C39.967 43.3549 39.798 43.5239 39.573 43.5239H24.42C24.206 43.5239 24.026 43.3549 24.026 43.1299V31.1939L19.74 29.2249C19.526 29.1349 19.447 28.8759 19.56 28.6849L21.844 24.4999C23.194 22.0139 25.77 20.4719 28.56 20.4719C29.089 21.9459 30.405 22.9809 31.958 22.9809C33.511 22.9809 34.827 21.9459 35.344 20.4719H35.445C38.235 20.4719 40.8 22.0129 42.161 24.4999L44.445 28.6849C44.546 28.8759 44.467 29.1349 44.265 29.2249Z" fill="white"/>
</g>
<defs>
<linearGradient id="paint0_linear_22773_3736" x1="32" y1="0.7016" x2="32" y2="64.7739" gradientUnits="userSpaceOnUse">
<stop stop-color="#52B4FE"/>
<stop offset="1" stop-color="#574FFF"/>
</linearGradient>
<clipPath id="clip0_22773_3736">
<rect width="64" height="64" fill="white"/>
</clipPath>
</defs>
</svg>
