<svg width="64" height="64" viewBox="0 0 64 64" fill="none" xmlns="http://www.w3.org/2000/svg">
<g id="Frame" clip-path="url(#clip0_22773_3809)">
<path id="Vector" d="M32 64C49.6731 64 64 49.6731 64 32C64 14.3269 49.6731 0 32 0C14.3269 0 0 14.3269 0 32C0 49.6731 14.3269 64 32 64Z" fill="url(#paint0_linear_22773_3809)"/>
<g id="Group">
<g id="Group_2">
<g id="Group_3">
<path id="Vector_2" d="M43.053 48.8049H22.152C17.983 48.8049 14.603 45.4249 14.603 41.2559V21.5959C14.603 17.4269 17.983 14.0469 22.152 14.0469H43.053C47.222 14.0469 50.602 17.4269 50.602 21.5959V41.2559C50.602 45.4249 47.222 48.8049 43.053 48.8049Z" stroke="white" stroke-width="2" stroke-linecap="round" stroke-linejoin="round"/>
<path id="Vector_3" d="M25.252 28.3649C27.2728 28.3649 28.911 26.7267 28.911 24.7059C28.911 22.6851 27.2728 21.0469 25.252 21.0469C23.2312 21.0469 21.593 22.6851 21.593 24.7059C21.593 26.7267 23.2312 28.3649 25.252 28.3649Z" fill="white"/>
<path id="Vector_4" opacity="0.5" d="M33.41 45.0455C33.41 49.1015 29.66 49.6675 25.035 49.6675C20.41 49.6675 16.66 49.1015 16.66 45.0455C16.66 40.9895 20.41 34.9805 25.035 34.9805C29.66 34.9805 33.41 40.9895 33.41 45.0455Z" fill="white"/>
<path id="Vector_5" d="M49.175 43.7029C49.175 49.1899 44.47 49.9569 38.665 49.9569C32.86 49.9569 28.155 49.1899 28.155 43.7029C28.155 38.2159 32.86 30.0859 38.665 30.0859C44.47 30.0859 49.175 38.2159 49.175 43.7029Z" fill="white"/>
</g>
</g>
</g>
<g id="Group_4">
<path id="Vector_6" d="M42.333 23.2527H39.787L39.566 23.9057C39.454 24.2347 39.145 24.4567 38.797 24.4567C38.234 24.4567 37.842 23.8977 38.034 23.3687L39.914 18.1717C40.03 17.8507 40.335 17.6367 40.677 17.6367H41.462C41.804 17.6367 42.109 17.8507 42.225 18.1717L44.105 23.3687C44.296 23.8977 43.905 24.4567 43.342 24.4567H43.322C42.974 24.4567 42.665 24.2347 42.553 23.9057L42.333 23.2527ZM41.906 21.9707L41.061 19.4737L40.225 21.9707H41.906Z" fill="white"/>
<path id="Vector_7" d="M46.909 18.4487V23.6457C46.909 24.0937 46.546 24.4577 46.097 24.4577H46.059C45.611 24.4577 45.247 24.0947 45.247 23.6457V18.4487C45.247 18.0007 45.61 17.6367 46.059 17.6367H46.097C46.545 17.6367 46.909 17.9997 46.909 18.4487Z" fill="white"/>
</g>
</g>
<defs>
<linearGradient id="paint0_linear_22773_3809" x1="32" y1="0.7016" x2="32" y2="64.7739" gradientUnits="userSpaceOnUse">
<stop stop-color="#52B4FE"/>
<stop offset="1" stop-color="#574FFF"/>
</linearGradient>
<clipPath id="clip0_22773_3809">
<rect width="64" height="64" fill="white"/>
</clipPath>
</defs>
</svg>
