<svg width="64" height="64" viewBox="0 0 64 64" fill="none" xmlns="http://www.w3.org/2000/svg">
<g clip-path="url(#clip0_22773_3763)">
<path d="M32 64C49.6731 64 64 49.6731 64 32C64 14.3269 49.6731 0 32 0C14.3269 0 0 14.3269 0 32C0 49.6731 14.3269 64 32 64Z" fill="url(#paint0_linear_22773_3763)"/>
<path fill-rule="evenodd" clip-rule="evenodd" d="M33.72 23.057L35.457 26.576C35.736 27.142 36.276 27.534 36.901 27.625L40.785 28.189C42.358 28.418 42.986 30.35 41.848 31.46L39.038 34.199C38.586 34.64 38.38 35.274 38.487 35.896L39.15 39.764C39.419 41.33 37.775 42.525 36.368 41.785L32.894 39.959C32.335 39.665 31.668 39.665 31.109 39.959L27.635 41.785C26.228 42.525 24.584 41.33 24.853 39.764L25.516 35.896C25.623 35.274 25.416 34.639 24.965 34.199L22.155 31.46C21.017 30.351 21.645 28.418 23.218 28.189L27.102 27.625C27.727 27.534 28.266 27.142 28.546 26.576L30.283 23.057C30.984 21.632 33.016 21.632 33.72 23.057Z" fill="white"/>
<path d="M32 50.2397C42.0731 50.2397 50.239 42.0738 50.239 32.0007C50.239 21.9276 42.0731 13.7617 32 13.7617C21.9269 13.7617 13.761 21.9276 13.761 32.0007C13.761 42.0738 21.9269 50.2397 32 50.2397Z" stroke="white" stroke-width="2" stroke-miterlimit="10"/>
</g>
<defs>
<linearGradient id="paint0_linear_22773_3763" x1="32" y1="0.7016" x2="32" y2="64.7739" gradientUnits="userSpaceOnUse">
<stop stop-color="#52B4FE"/>
<stop offset="1" stop-color="#574FFF"/>
</linearGradient>
<clipPath id="clip0_22773_3763">
<rect width="64" height="64" fill="white"/>
</clipPath>
</defs>
</svg>
