<svg width="64" height="64" viewBox="0 0 64 64" fill="none" xmlns="http://www.w3.org/2000/svg">
<g clip-path="url(#clip0_22773_3740)">
<path d="M32 64C49.6731 64 64 49.6731 64 32C64 14.3269 49.6731 0 32 0C14.3269 0 0 14.3269 0 32C0 49.6731 14.3269 64 32 64Z" fill="url(#paint0_linear_22773_3740)"/>
<path d="M31.788 12.4688C42.341 12.4688 50.896 21.0237 50.896 31.5767C50.896 42.1297 42.341 50.6847 31.788 50.6847C21.235 50.6847 12.68 42.1297 12.68 31.5767C12.68 21.0227 21.235 12.4688 31.788 12.4688Z" fill="#E9EAEB"/>
<mask id="mask0_22773_3740" style="mask-type:luminance" maskUnits="userSpaceOnUse" x="12" y="12" width="39" height="39">
<path d="M31.788 12.4688C42.341 12.4688 50.896 21.0237 50.896 31.5767C50.896 42.1297 42.341 50.6847 31.788 50.6847C21.235 50.6847 12.68 42.1297 12.68 31.5767C12.68 21.0227 21.235 12.4688 31.788 12.4688Z" fill="white"/>
</mask>
<g mask="url(#mask0_22773_3740)">
<path d="M53.231 10.7695H44.739V19.2615H53.231V10.7695Z" fill="white"/>
<path d="M53.231 44.7383H44.739V53.2303H53.231V44.7383Z" fill="white"/>
<path d="M53.231 27.7539H44.739V36.2459H53.231V27.7539Z" fill="white"/>
<path d="M44.738 19.2617H36.246V27.7537H44.738V19.2617Z" fill="white"/>
<path d="M44.738 36.2461H36.246V44.7381H44.738V36.2461Z" fill="white"/>
<path d="M19.261 44.7383H10.769V53.2303H19.261V44.7383Z" fill="white"/>
<path d="M19.261 27.7539H10.769V36.2459H19.261V27.7539Z" fill="white"/>
<path d="M36.246 10.7695H27.754V19.2615H36.246V10.7695Z" fill="white"/>
<path d="M36.246 44.7383H27.754V53.2303H36.246V44.7383Z" fill="white"/>
<path d="M27.753 19.2617H19.261V27.7537H27.753V19.2617Z" fill="white"/>
<path d="M36.246 27.7539H27.754V36.2459H36.246V27.7539Z" fill="white"/>
<path d="M27.753 36.2461H19.261V44.7381H27.753V36.2461Z" fill="white"/>
<path d="M19.261 10.7695H10.769V19.2615H19.261V10.7695Z" fill="white"/>
</g>
<path d="M39.752 43.7162H24.248C21.754 43.7162 20.11 41.1383 21.138 38.8503C22.576 35.6373 25.406 33.1812 28.862 32.2372C26.919 31.1442 25.612 29.0612 25.612 26.6702C25.612 23.1393 28.47 20.2812 32.001 20.2812C35.532 20.2812 38.39 23.1393 38.39 26.6702C38.39 29.0612 37.082 31.1442 35.14 32.2372C38.596 33.1712 41.426 35.6373 42.864 38.8503C43.89 41.1383 42.246 43.7162 39.752 43.7162Z" fill="url(#paint1_linear_22773_3740)"/>
</g>
<defs>
<linearGradient id="paint0_linear_22773_3740" x1="32" y1="0.7016" x2="32" y2="64.7739" gradientUnits="userSpaceOnUse">
<stop stop-color="#52B4FE"/>
<stop offset="1" stop-color="#574FFF"/>
</linearGradient>
<linearGradient id="paint1_linear_22773_3740" x1="40.6978" y1="25.8971" x2="23.9009" y2="44.5836" gradientUnits="userSpaceOnUse">
<stop stop-color="#52B4FE"/>
<stop offset="1" stop-color="#574FFF"/>
</linearGradient>
<clipPath id="clip0_22773_3740">
<rect width="64" height="64" fill="white"/>
</clipPath>
</defs>
</svg>
